<svg xmlns="http://www.w3.org/2000/svg" xmlns:xlink="http://www.w3.org/1999/xlink" width="49.232" height="61.751" viewBox="0 0 49.232 61.751">
  <defs>
    <linearGradient id="linear-gradient" x1="0.5" x2="0.5" y2="1" gradientUnits="objectBoundingBox">
      <stop offset="0" stop-color="#08b5fc"/>
      <stop offset="1" stop-color="#1278f5"/>
    </linearGradient>
  </defs>
  <g id="Group_16" data-name="Group 16" transform="translate(-2.531 -0.125)">
    <path id="Path_10" data-name="Path 10" d="M37.416,51.726a14.786,14.786,0,0,1-5.239-1.258A11.808,11.808,0,0,0,28.2,49.436a11.677,11.677,0,0,0-3.726.975,15.786,15.786,0,0,1-5.465,1.29c-3.286,0-6.232-1.882-9.019-5.743-.117-.164-11.463-16.827-5.951-29.2C7.06,9.982,11.409,6.542,16.968,6.542A24.186,24.186,0,0,1,24.781,8.2a12.85,12.85,0,0,0,2.972.8,11.222,11.222,0,0,0,3.073-.868,21.185,21.185,0,0,1,7.42-1.669c4.183,0,7.969,1.932,11.578,5.9a1.3,1.3,0,0,1-.2,1.924c-3.8,2.772-5.733,5.977-5.733,9.531,0,4.4,2.174,7.636,7.256,10.8a1.292,1.292,0,0,1,.5,1.633C46.87,46.953,42.481,51.726,37.416,51.726Z" transform="translate(0 10.15)" fill="url(#linear-gradient)"/>
    <path id="Path_11" data-name="Path 11" d="M13.563,15.948a8.039,8.039,0,0,1-.936-.057,1.292,1.292,0,0,1-1.139-1.24C11.145,5.951,18.518.624,23.968.13a1.313,1.313,0,0,1,1.4,1.063,12.51,12.51,0,0,1-3.089,10.1c-2.439,2.917-5.7,4.656-8.718,4.656Z" transform="translate(14.312 0)" fill="url(#linear-gradient)"/>
  </g>
</svg>
