<svg xmlns="http://www.w3.org/2000/svg" width="920" height="610.707" viewBox="0 0 920 610.707">
  <g id="Call-svg" transform="translate(0 -44.546)">
    <g id="Group_63" data-name="Group 63" transform="translate(0 44.547)">
      <path id="Path_12" data-name="Path 12" d="M520.589,69.6a265.816,265.816,0,0,1,31.37,16.067c33.436,20.155,60.334,49.5,93.19,69.716,31.026,19.088,68.915,23.729,104.418,26.919,61.885,5.562,190.957,58.9,167.651,157.769-8.479,35.979-38.379,60.415-53.687,93-16.284,34.658-14.575,77.885-40.5,107.931-11.406,13.211-27.151,21.936-43.315,28.546-107.575,43.972-228.382,41.928-342.449,37.081-90.033-3.825-234.638,16.394-313.72-32.98C84.283,549.128,104.7,482.117,77.532,446.125,54.7,415.881,23.633,396.017,8.37,358.159-17.6,293.74,19.419,209.908,84.243,187.041c40.508-14.289,83.422-20.836,123.464-36.529,41.369-16.22,57.309-40.513,88.857-69.267C353.6,29.272,450.669,39.246,520.589,69.6Z" transform="translate(0 -44.547)" fill="#cce9ff"/>
      <g id="Group_62" data-name="Group 62" transform="translate(157.717 59.547)">
        <g id="Group_59" data-name="Group 59" transform="translate(99.802 94.236)">
          <path id="Path_13" data-name="Path 13" d="M479.633,428.93H167.365V233.64a6.62,6.62,0,0,1,6.558-6.681H473.075a6.619,6.619,0,0,1,6.558,6.681Z" transform="translate(-116.933 -45.103)" fill="#d3d3d3"/>
          <rect id="Rectangle_32" data-name="Rectangle 32" width="289.413" height="172.215" transform="translate(61.862 196.006)" fill="#f2f2f2"/>
          <path id="Path_14" data-name="Path 14" d="M140.725,368.32c-2.87,3.754,2.615,14.965,11.217,14.965H547.779c8.6,0,14.012-11.211,10.72-14.965Z" transform="translate(-139.956 73.64)" fill="#d3d3d3"/>
          <path id="Path_15" data-name="Path 15" d="M557.046,394.495c3.292,3.748-1.019,6.79-9.614,6.79H151.6c-8.6,0-13.246-3.042-10.376-6.79q20.264-26.5,40.526-52.986c2.87-3.752,10.381-6.791,16.781-6.791H493.02c6.392,0,14.253,3.04,17.544,6.791Q533.8,368.01,557.046,394.495Z" transform="translate(-139.608 45.414)" fill="#f2f2f2"/>
          <g id="Group_23" data-name="Group 23" transform="translate(57.26 387.04)" opacity="0.5">
            <path id="Path_16" data-name="Path 16" d="M194.713,347.629H181.344c1.892-2.8,2.839-4.2,4.727-7.007h12.841C197.234,343.424,196.393,344.825,194.713,347.629Z" transform="translate(-162.451 -336.666)" fill="#d3d3d3"/>
            <path id="Path_17" data-name="Path 17" d="M204.13,347.629H190.761c1.619-2.8,2.429-4.2,4.044-7.007h12.838C206.239,343.424,205.536,344.828,204.13,347.629Z" transform="translate(-154.541 -336.666)" fill="#d3d3d3"/>
            <path id="Path_18" data-name="Path 18" d="M203.928,341.087H184.411c.7-1.045,1.056-1.568,1.763-2.615h19.221C204.806,339.519,204.513,340.042,203.928,341.087Z" transform="translate(-159.875 -338.472)" fill="#d3d3d3"/>
            <path id="Path_19" data-name="Path 19" d="M216.362,341.089l-19.522,0c.563-1.045.845-1.568,1.411-2.615h19.221C217.03,339.519,216.8,340.042,216.362,341.089Z" transform="translate(-149.434 -338.472)" fill="#d3d3d3"/>
            <path id="Path_20" data-name="Path 20" d="M228.8,341.087H209.272c.421-1.045.635-1.568,1.056-2.615h19.23C229.253,339.519,229.1,340.042,228.8,341.087Z" transform="translate(-138.991 -338.472)" fill="#d3d3d3"/>
            <path id="Path_21" data-name="Path 21" d="M241.225,341.087H221.706c.282-1.045.42-1.568.7-2.615h19.224C241.473,339.519,241.39,340.042,241.225,341.087Z" transform="translate(-128.547 -338.472)" fill="#d3d3d3"/>
            <path id="Path_22" data-name="Path 22" d="M253.661,341.087H234.137c.144-1.045.212-1.568.355-2.615h19.219C253.691,339.519,253.681,340.042,253.661,341.087Z" transform="translate(-118.105 -338.472)" fill="#d3d3d3"/>
            <path id="Path_23" data-name="Path 23" d="M266.091,341.087H246.572v-2.615h19.219C265.912,339.519,265.966,340.042,266.091,341.087Z" transform="translate(-107.66 -338.472)" fill="#d3d3d3"/>
            <path id="Path_24" data-name="Path 24" d="M278.689,341.087H259.167c-.142-1.045-.213-1.568-.357-2.615h19.226C278.294,339.519,278.426,340.042,278.689,341.087Z" transform="translate(-97.38 -338.472)" fill="#d3d3d3"/>
            <path id="Path_25" data-name="Path 25" d="M291.284,341.087H271.76c-.282-1.045-.425-1.568-.707-2.615h19.221C290.68,339.519,290.881,340.042,291.284,341.087Z" transform="translate(-87.096 -338.472)" fill="#d3d3d3"/>
            <path id="Path_26" data-name="Path 26" d="M303.881,341.087H284.358c-.429-1.045-.64-1.568-1.067-2.615h19.23C303.065,339.519,303.336,340.042,303.881,341.087Z" transform="translate(-76.816 -338.472)" fill="#d3d3d3"/>
            <path id="Path_27" data-name="Path 27" d="M316.466,341.087H296.947c-.565-1.045-.85-1.568-1.411-2.615h19.215C315.436,339.519,315.778,340.042,316.466,341.087Z" transform="translate(-66.53 -338.472)" fill="#d3d3d3"/>
            <path id="Path_28" data-name="Path 28" d="M331.712,341.087H309.543c-.707-1.045-1.062-1.568-1.768-2.615H329.6C330.446,339.519,330.871,340.042,331.712,341.087Z" transform="translate(-56.249 -338.472)" fill="#d3d3d3"/>
            <path id="Path_29" data-name="Path 29" d="M213.542,347.629H200.176c1.343-2.8,2.018-4.2,3.358-7,5.137,0,7.7,0,12.838,0C215.242,343.428,214.675,344.825,213.542,347.629Z" transform="translate(-146.632 -336.666)" fill="#d3d3d3"/>
            <path id="Path_30" data-name="Path 30" d="M222.958,347.629H209.59c1.073-2.8,1.606-4.2,2.681-7.007,5.135,0,7.7,0,12.838,0C224.249,343.428,223.819,344.828,222.958,347.629Z" transform="translate(-138.724 -336.666)" fill="#d3d3d3"/>
            <path id="Path_31" data-name="Path 31" d="M232.374,347.629H219.008c.8-2.8,1.2-4.2,1.995-7.007H233.84C233.255,343.424,232.957,344.828,232.374,347.629Z" transform="translate(-130.813 -336.666)" fill="#d3d3d3"/>
            <path id="Path_32" data-name="Path 32" d="M241.789,347.629H228.423c.523-2.8.78-4.208,1.308-7.007h12.841C242.256,343.424,242.1,344.828,241.789,347.629Z" transform="translate(-122.905 -336.666)" fill="#d3d3d3"/>
            <path id="Path_33" data-name="Path 33" d="M251.194,347.629H237.839c.25-2.8.375-4.208.626-7.007H251.3C251.26,343.424,251.24,344.828,251.194,347.629Z" transform="translate(-114.995 -336.666)" fill="#d3d3d3"/>
            <path id="Path_34" data-name="Path 34" d="M260.642,347.629H247.277c-.02-2.8-.029-4.2-.052-7.007h12.834C260.295,343.424,260.41,344.828,260.642,347.629Z" transform="translate(-107.111 -336.666)" fill="#d3d3d3"/>
            <path id="Path_35" data-name="Path 35" d="M270.365,347.629H257c-.293-2.8-.44-4.2-.732-7.007H269.1C269.608,343.424,269.859,344.828,270.365,347.629Z" transform="translate(-99.512 -336.666)" fill="#d3d3d3"/>
            <path id="Path_36" data-name="Path 36" d="M280.092,347.629H266.73c-.565-2.8-.85-4.2-1.419-7.007h12.838C278.923,343.424,279.313,344.828,280.092,347.629Z" transform="translate(-91.919 -336.666)" fill="#d3d3d3"/>
            <path id="Path_37" data-name="Path 37" d="M191.987,352.7H177.924c1.888-2.8,2.83-4.2,4.718-7h13.544C194.506,348.5,193.665,349.9,191.987,352.7Z" transform="translate(-165.324 -332.401)" fill="#d3d3d3"/>
            <path id="Path_38" data-name="Path 38" d="M201.9,352.7H187.834c1.619-2.8,2.429-4.2,4.044-7h13.544C204.011,348.5,203.3,349.9,201.9,352.7Z" transform="translate(-156.999 -332.401)" fill="#d3d3d3"/>
            <path id="Path_39" data-name="Path 39" d="M211.812,352.7H197.743c1.343-2.8,2.011-4.2,3.358-7H214.64C213.508,348.5,212.94,349.9,211.812,352.7Z" transform="translate(-148.676 -332.401)" fill="#d3d3d3"/>
            <path id="Path_40" data-name="Path 40" d="M221.723,352.7H207.651c1.071-2.8,1.608-4.2,2.675-7h13.546C223.011,348.5,222.581,349.9,221.723,352.7Z" transform="translate(-140.353 -332.401)" fill="#d3d3d3"/>
            <path id="Path_41" data-name="Path 41" d="M231.632,352.7H217.565c.8-2.8,1.194-4.2,1.991-7,5.419,0,8.122-.005,13.541-.005C232.506,348.5,232.217,349.9,231.632,352.7Z" transform="translate(-132.025 -332.401)" fill="#d3d3d3"/>
            <path id="Path_42" data-name="Path 42" d="M241.538,352.7H227.471c.524-2.8.786-4.2,1.312-7h13.539C242.011,348.5,241.851,349.9,241.538,352.7Z" transform="translate(-123.704 -332.401)" fill="#d3d3d3"/>
            <path id="Path_43" data-name="Path 43" d="M251.443,352.7H237.382c.25-2.8.379-4.2.629-7h13.531C251.5,348.5,251.484,349.9,251.443,352.7Z" transform="translate(-115.379 -332.401)" fill="#d3d3d3"/>
            <path id="Path_44" data-name="Path 44" d="M261.381,352.7H247.315c-.02-2.8-.029-4.2-.052-7H260.8C261.032,348.5,261.153,349.9,261.381,352.7Z" transform="translate(-107.079 -332.401)" fill="#d3d3d3"/>
            <path id="Path_45" data-name="Path 45" d="M271.6,352.7H257.538c-.3-2.8-.445-4.2-.734-7h13.531C270.841,348.5,271.093,349.9,271.6,352.7Z" transform="translate(-99.065 -332.401)" fill="#d3d3d3"/>
            <path id="Path_46" data-name="Path 46" d="M281.822,352.7H267.758c-.569-2.8-.856-4.2-1.42-7h13.539C280.655,348.5,281.045,349.9,281.822,352.7Z" transform="translate(-91.056 -332.401)" fill="#d3d3d3"/>
            <path id="Path_47" data-name="Path 47" d="M189.27,357.781H174.5c1.886-2.8,2.835-4.2,4.725-7,5.695,0,8.545,0,14.243,0C191.789,353.573,190.946,354.978,189.27,357.781Z" transform="translate(-168.2 -328.138)" fill="#d3d3d3"/>
            <path id="Path_48" data-name="Path 48" d="M199.672,357.779H184.906c1.614-2.8,2.423-4.2,4.039-7h14.247C201.784,353.573,201.078,354.977,199.672,357.779Z" transform="translate(-159.459 -328.137)" fill="#d3d3d3"/>
            <path id="Path_49" data-name="Path 49" d="M210.081,357.779H195.308c1.343-2.8,2.015-4.2,3.358-7h14.243Z" transform="translate(-150.721 -328.137)" fill="#d3d3d3"/>
            <path id="Path_50" data-name="Path 50" d="M220.485,357.779H205.71c1.071-2.8,1.608-4.2,2.677-7h14.247C221.777,353.573,221.346,354.977,220.485,357.779Z" transform="translate(-141.984 -328.137)" fill="#d3d3d3"/>
            <path id="Path_51" data-name="Path 51" d="M230.883,357.779H216.119c.795-2.8,1.2-4.2,1.991-7h14.242C231.77,353.573,231.474,354.977,230.883,357.779Z" transform="translate(-133.24 -328.137)" fill="#d3d3d3"/>
            <path id="Path_52" data-name="Path 52" d="M241.286,357.779H226.52c.523-2.8.789-4.2,1.314-7h14.243C241.761,353.573,241.6,354.977,241.286,357.779Z" transform="translate(-124.503 -328.137)" fill="#d3d3d3"/>
            <path id="Path_53" data-name="Path 53" d="M251.685,357.779H236.926c.25-2.8.375-4.2.626-7h14.236C251.751,353.573,251.729,354.977,251.685,357.779Z" transform="translate(-115.762 -328.137)" fill="#d3d3d3"/>
            <path id="Path_54" data-name="Path 54" d="M262.125,357.779H247.354c-.017-2.8-.029-4.2-.052-7h14.242C261.777,353.573,261.889,354.977,262.125,357.779Z" transform="translate(-107.046 -328.137)" fill="#d3d3d3"/>
            <path id="Path_55" data-name="Path 55" d="M272.835,357.779h-14.76c-.3-2.8-.445-4.2-.738-7h14.236C272.077,353.573,272.333,354.977,272.835,357.779Z" transform="translate(-98.617 -328.137)" fill="#d3d3d3"/>
            <path id="Path_56" data-name="Path 56" d="M283.55,357.779H268.78c-.563-2.8-.846-4.2-1.415-7h14.242C282.381,353.573,282.771,354.977,283.55,357.779Z" transform="translate(-90.193 -328.137)" fill="#d3d3d3"/>
            <path id="Path_57" data-name="Path 57" d="M186.549,362.85H171.076c1.888-2.8,2.839-4.2,4.727-7h14.941C189.069,358.65,188.23,360.05,186.549,362.85Z" transform="translate(-171.076 -323.874)" fill="#d3d3d3"/>
            <path id="Path_58" data-name="Path 58" d="M197.447,362.85H181.978c1.619-2.8,2.425-4.2,4.044-7h14.944C199.559,358.65,198.851,360.05,197.447,362.85Z" transform="translate(-161.918 -323.874)" fill="#d3d3d3"/>
            <path id="Path_59" data-name="Path 59" d="M208.344,362.85H192.875c1.343-2.8,2.017-4.2,3.364-7h14.939C210.046,358.65,209.481,360.05,208.344,362.85Z" transform="translate(-152.765 -323.874)" fill="#d3d3d3"/>
            <path id="Path_60" data-name="Path 60" d="M219.219,363.072h-15.5c1.111-2.887,1.66-4.333,2.764-7.22h14.95C220.55,358.737,220.108,360.185,219.219,363.072Z" transform="translate(-143.653 -323.873)" fill="#d3d3d3"/>
            <path id="Path_61" data-name="Path 61" d="M330.41,362.85H214.672c.793-2.8,1.19-4.2,1.989-7h111.8C329.241,358.65,329.633,360.05,330.41,362.85Z" transform="translate(-134.455 -323.874)" fill="#d3d3d3"/>
            <path id="Path_62" data-name="Path 62" d="M231.078,373.465h87.8l-7.393-11.931H238.066Z" transform="translate(-120.674 -319.1)" fill="#d3d3d3"/>
            <path id="Path_63" data-name="Path 63" d="M288.895,347.629H275.529c-.819-2.8-1.222-4.2-2.035-7.007h12.838C287.357,343.421,287.864,344.828,288.895,347.629Z" transform="translate(-85.045 -336.666)" fill="#d3d3d3"/>
            <path id="Path_64" data-name="Path 64" d="M291.072,352.7H277c-.811-2.8-1.216-4.2-2.031-7h13.546C289.533,348.5,290.047,349.9,291.072,352.7Z" transform="translate(-83.807 -332.401)" fill="#d3d3d3"/>
            <path id="Path_65" data-name="Path 65" d="M293.247,357.779H278.475c-.815-2.8-1.216-4.2-2.031-7h14.243C291.71,353.573,292.218,354.977,293.247,357.779Z" transform="translate(-82.567 -328.137)" fill="#d3d3d3"/>
            <path id="Path_66" data-name="Path 66" d="M295.425,362.85H279.952c-.815-2.8-1.222-4.2-2.035-7h14.944C293.886,358.65,294.4,360.05,295.425,362.85Z" transform="translate(-81.33 -323.874)" fill="#d3d3d3"/>
            <path id="Path_67" data-name="Path 67" d="M297.691,347.629H284.325c-1.062-2.8-1.6-4.2-2.651-7.007h12.84C295.781,343.424,296.42,344.828,297.691,347.629Z" transform="translate(-78.174 -336.666)" fill="#d3d3d3"/>
            <path id="Path_68" data-name="Path 68" d="M300.317,352.7H286.248c-1.062-2.8-1.6-4.2-2.651-7h13.541C298.405,348.5,299.046,349.9,300.317,352.7Z" transform="translate(-76.559 -332.401)" fill="#d3d3d3"/>
            <path id="Path_69" data-name="Path 69" d="M302.941,357.779h-14.77c-1.062-2.8-1.593-4.2-2.655-7h14.243C301.036,353.573,301.668,354.977,302.941,357.779Z" transform="translate(-74.947 -328.137)" fill="#d3d3d3"/>
            <path id="Path_70" data-name="Path 70" d="M305.561,362.85H290.087c-1.056-2.8-1.59-4.2-2.646-7h14.941C303.655,358.65,304.286,360.05,305.561,362.85Z" transform="translate(-73.33 -323.874)" fill="#d3d3d3"/>
            <path id="Path_71" data-name="Path 71" d="M306.489,347.629H293.126c-1.308-2.8-1.963-4.2-3.272-7.007H302.7C304.213,343.424,304.975,344.828,306.489,347.629Z" transform="translate(-71.303 -336.666)" fill="#d3d3d3"/>
            <path id="Path_72" data-name="Path 72" d="M309.56,352.7H295.494l-3.272-7h13.544C307.282,348.5,308.046,349.9,309.56,352.7Z" transform="translate(-69.314 -332.401)" fill="#d3d3d3"/>
            <path id="Path_73" data-name="Path 73" d="M312.635,357.779H297.864c-1.308-2.8-1.96-4.2-3.272-7h14.247C310.353,353.573,311.117,354.977,312.635,357.779Z" transform="translate(-67.323 -328.137)" fill="#d3d3d3"/>
            <path id="Path_74" data-name="Path 74" d="M315.7,362.85H300.231c-1.306-2.8-1.958-4.2-3.27-7h14.946C313.423,358.65,314.185,360.05,315.7,362.85Z" transform="translate(-65.333 -323.874)" fill="#d3d3d3"/>
            <path id="Path_75" data-name="Path 75" d="M315.284,347.629H301.92l-3.884-7.007H310.87C312.642,343.424,313.52,344.828,315.284,347.629Z" transform="translate(-64.43 -336.666)" fill="#d3d3d3"/>
            <path id="Path_76" data-name="Path 76" d="M318.8,352.7H304.738c-1.553-2.8-2.333-4.2-3.886-7h13.541C316.157,348.5,317.044,349.9,318.8,352.7Z" transform="translate(-62.064 -332.401)" fill="#d3d3d3"/>
            <path id="Path_77" data-name="Path 77" d="M322.323,357.779H307.557c-1.555-2.8-2.329-4.2-3.888-7h14.243C319.679,353.573,320.56,354.977,322.323,357.779Z" transform="translate(-59.698 -328.137)" fill="#d3d3d3"/>
            <path id="Path_78" data-name="Path 78" d="M325.844,362.85H310.372c-1.553-2.8-2.329-4.2-3.888-7h14.948C323.195,358.65,324.076,360.05,325.844,362.85Z" transform="translate(-57.334 -323.874)" fill="#d3d3d3"/>
            <path id="Path_79" data-name="Path 79" d="M324.092,347.629H310.723c-1.8-2.8-2.707-4.2-4.51-7.007h12.843C321.069,343.424,322.074,344.828,324.092,347.629Z" transform="translate(-57.561 -336.666)" fill="#d3d3d3"/>
            <path id="Path_80" data-name="Path 80" d="M328.049,352.7H313.981c-1.8-2.8-2.7-4.2-4.5-7h13.541C325.034,348.5,326.04,349.9,328.049,352.7Z" transform="translate(-54.817 -332.401)" fill="#d3d3d3"/>
            <path id="Path_81" data-name="Path 81" d="M332.019,357.779H317.244c-1.8-2.8-2.7-4.2-4.5-7H326.99C329,353.573,330.008,354.977,332.019,357.779Z" transform="translate(-52.076 -328.137)" fill="#d3d3d3"/>
            <path id="Path_82" data-name="Path 82" d="M335.984,362.85H320.508c-1.8-2.8-2.7-4.2-4.5-7h14.95C332.966,358.65,333.971,360.05,335.984,362.85Z" transform="translate(-49.336 -323.874)" fill="#d3d3d3"/>
            <path id="Path_83" data-name="Path 83" d="M332.882,347.629H319.52c-2.05-2.8-3.071-4.2-5.126-7.007h12.843C329.495,343.424,330.623,344.828,332.882,347.629Z" transform="translate(-50.689 -336.666)" fill="#d3d3d3"/>
            <path id="Path_84" data-name="Path 84" d="M337.294,352.7H323.225c-2.042-2.8-3.071-4.2-5.117-7h13.539C333.9,348.5,335.034,349.9,337.294,352.7Z" transform="translate(-47.569 -332.401)" fill="#d3d3d3"/>
            <path id="Path_85" data-name="Path 85" d="M341.708,357.779h-14.77c-2.05-2.8-3.071-4.2-5.121-7h14.243C338.321,353.573,339.449,354.977,341.708,357.779Z" transform="translate(-44.453 -328.137)" fill="#d3d3d3"/>
            <path id="Path_86" data-name="Path 86" d="M346.122,362.85H330.646c-2.046-2.8-3.071-4.2-5.117-7h14.944C342.733,358.65,343.859,360.05,346.122,362.85Z" transform="translate(-41.336 -323.874)" fill="#d3d3d3"/>
          </g>
          <g id="Group_58" data-name="Group 58" transform="translate(76.43)">
            <g id="Group_24" data-name="Group 24" transform="translate(66.451 332.716)">
              <path id="Path_87" data-name="Path 87" d="M355.4,344.407H217.609c.984-4,1.886-7.194,2.677-9.417a13.246,13.246,0,0,1,1.678-3.209c2.442-3.459,6.622-6.4,12.008-8.889,6.429-2.973,14.565-5.31,23.486-7.163,9.478-1.943,19.817-3.343,29.883-4.357.681-.061,1.354-.132,2.035-.191,11.2-1.045,21.953-1.619,30.632-1.9,11.982-.414,20.06-.328,20.06-.328s.648,1.032,1.783,3.093C344.51,316.936,349.826,327.646,355.4,344.407Z" transform="translate(-217.609 -308.948)" fill="#0b4870"/>
            </g>
            <path id="Path_88" data-name="Path 88" d="M235.757,206.023A20.888,20.888,0,0,1,234.384,211l.39-4.453C235.1,206.349,235.433,206.22,235.757,206.023Z" transform="translate(-137.067 -62.689)" fill="#ffe3ca"/>
            <path id="Path_89" data-name="Path 89" d="M274.949,202.461v.059a1.375,1.375,0,0,0-.328-.127C274.753,202.395,274.814,202.461,274.949,202.461Z" transform="translate(-103.268 -65.738)" fill="#eebea7"/>
            <g id="Group_33" data-name="Group 33" transform="translate(313.097 184.518)">
              <g id="Group_28" data-name="Group 28" transform="translate(0 6.765)">
                <g id="Group_27" data-name="Group 27">
                  <g id="Group_26" data-name="Group 26">
                    <g id="Group_25" data-name="Group 25">
                      <path id="Path_90" data-name="Path 90" d="M351.656,271.485s8.512-7.89,6.825-13.809c-1.43-5.023.729-10.65,1.266-12.985.729-3.093,1.021-13.134,3.329-12.587,3.906.949,3,16.978,3.485,20.395s10.832-8.019,14.359-8.617,21.5,17.6,13.5,24.63-19.042,9.866-20.209,11.382-6.65,5.682-6.65,5.682Z" transform="translate(-351.656 -232.082)" fill="#f1b99e"/>
                    </g>
                  </g>
                </g>
              </g>
              <g id="Group_32" data-name="Group 32" transform="translate(27.004)">
                <g id="Group_31" data-name="Group 31">
                  <g id="Group_30" data-name="Group 30">
                    <g id="Group_29" data-name="Group 29">
                      <path id="Path_91" data-name="Path 91" d="M366.332,248.159s25.946-19.872,28.781-19.752,3.829,1.593,1.478,3.548-24.5,19.94-24.5,19.94,34.651-18.371,37-18.781c1.365-.243,2.414,2.385,1.248,3.553s-33.405,21.443-33.405,21.443,32.382-17.1,34.447-16.854a2.522,2.522,0,0,1,.786,4.635c-2.317,1.43-31.479,19-31.479,19s24.362-10.952,25.983-9.728c.984.758,2.39,2.421-3.974,5.049s-20.245,11.031-20.245,11.031Z" transform="translate(-366.332 -228.406)" fill="#f1b99e"/>
                    </g>
                  </g>
                </g>
              </g>
            </g>
            <path id="Path_92" data-name="Path 92" d="M265.867,193.107v1.766a4.325,4.325,0,0,1-.328-.914.258.258,0,0,1-.134-.265A4.241,4.241,0,0,1,265.867,193.107Z" transform="translate(-111.009 -73.538)" fill="#ffbe55"/>
            <g id="Group_34" data-name="Group 34" transform="translate(134.498 119.569)">
              <path id="Path_93" data-name="Path 93" d="M255.443,198.975a4.043,4.043,0,0,1-.852.061v-.129A3.584,3.584,0,0,0,255.443,198.975Z" transform="translate(-254.591 -188.235)" fill="#eebea7"/>
              <path id="Path_94" data-name="Path 94" d="M267.269,193.107v.526c-.138.132-.2.193-.328.326-.719.786-1.509,1.5-2.293,2.226-.329.263-.589.521-.913.784.388-.388.846-.85,1.246-1.242.589-.589,1.174-1.308,1.825-2.033A4.24,4.24,0,0,1,267.269,193.107Z" transform="translate(-246.909 -193.107)" fill="#eebea7"/>
            </g>
            <g id="Group_37" data-name="Group 37" transform="translate(98.469 57.06)">
              <g id="Group_36" data-name="Group 36">
                <g id="Group_35" data-name="Group 35">
                  <path id="Path_95" data-name="Path 95" d="M306.387,199.063a84.955,84.955,0,0,1-12.965,20.884c-.65.784-1.375,1.568-2.026,2.225v-.526a4.141,4.141,0,0,0-.462.587c-.651.725-1.236,1.444-1.825,2.033-.4.394-.857.854-1.246,1.242a1.713,1.713,0,0,0-.394.329,1.8,1.8,0,0,1-.594.458,14.822,14.822,0,0,1-1.636,1.242,19.091,19.091,0,0,1-2.088,1.374c-.2.131-.4.259-.524.329a18.924,18.924,0,0,1-1.893.977,11.314,11.314,0,0,1-1.84.788l-.063.066c-.523.132-.918.327-1.378.458a.919.919,0,0,1-.394.132,11.211,11.211,0,0,1-1.374.327c-.127,0-.193.063-.324.063h-.2c-.324.07-.714.134-1.041.2a5.9,5.9,0,0,1-1.047.063,4.5,4.5,0,0,1-.922.068h-.063a.127.127,0,0,1-.2,0,3.586,3.586,0,0,1-.852-.068v.129a8.484,8.484,0,0,1-1.24-.129c-.462-.063-.984-.129-1.446-.193-.261-.07-.517-.07-.852-.132a3.886,3.886,0,0,1-.784-.2,17.331,17.331,0,0,1-4.055-1.573,11.335,11.335,0,0,1-1.246-.714,30.15,30.15,0,0,1-6.418-5.24c-.778-.78-1.5-1.7-2.287-2.62a75.247,75.247,0,0,1-9.752-16.818c-1.308-2.95-2.491-5.829-3.536-8.578,1.634,3.207-1.216-26.711-.559-25.661-8.9-17.02-.029-3.012,3.121-11.452,19.7,8.311,57.986,22.649,57.986,8.114,0,0,.85,8.837,1.836,18,.784,7.527,1.636,15.322,2.031,18.266C303.837,203.514,304.879,201.876,306.387,199.063Z" transform="translate(-235.01 -159.135)" fill="#f4c7b1"/>
                  <path id="Path_96" data-name="Path 96" d="M255.443,198.975a4.043,4.043,0,0,1-.852.061v-.129A3.584,3.584,0,0,0,255.443,198.975Z" transform="translate(-218.562 -125.727)" fill="#eebea7"/>
                  <path id="Path_97" data-name="Path 97" d="M267.269,193.107v.526c-.138.132-.2.193-.328.326-.719.786-1.509,1.5-2.293,2.226-.329.263-.589.521-.913.784.388-.388.846-.85,1.246-1.242.589-.589,1.174-1.308,1.825-2.033A4.24,4.24,0,0,1,267.269,193.107Z" transform="translate(-210.88 -130.599)" fill="#eebea7"/>
                </g>
              </g>
            </g>
            <g id="Group_40" data-name="Group 40" transform="translate(90.51 3.196)">
              <g id="Group_39" data-name="Group 39">
                <g id="Group_38" data-name="Group 38">
                  <path id="Path_98" data-name="Path 98" d="M243.054,220.838c-5.24-10.343-13.682-30.108-12.175-48.832v-.068c-2.353-15.511,16.956-43.463,46.414-42.024,29.453-1.439,48.767,26.513,46.408,42.024v.068c.911,11.323-1.836,22.974-5.238,32.732a17.4,17.4,0,0,1,6.346.913c11.721,3.864,17.217,19.116,12.243,33.976-4.907,14.922-18.461,23.822-30.176,19.962-5.435-1.768-9.561-6.02-11.848-11.588v-1.24c.651-.655,1.378-1.441,2.026-2.225a84.953,84.953,0,0,0,12.965-20.884,33.729,33.729,0,0,0-2.425,6.274c-.4-2.94-1.375-12.56-2.158-20.087-.988-9.163-1.836-18-1.836-18,0,14.536-38.289.2-57.986-8.114Z" transform="translate(-230.685 -129.861)" fill="#ffbe55"/>
                </g>
              </g>
            </g>
            <g id="Group_43" data-name="Group 43" transform="translate(134.498 119.569)">
              <g id="Group_42" data-name="Group 42">
                <g id="Group_41" data-name="Group 41">
                  <path id="Path_99" data-name="Path 99" d="M274.951,193.107v1.766c0,1.246-.063,2.751,0,4.453a34.8,34.8,0,0,1-5.761,5.825c-.661.524-1.312.984-1.963,1.441a10.607,10.607,0,0,1-1.573.981h-.063a19.031,19.031,0,0,1-8.968,2.618h-1.509a1.268,1.268,0,0,1-.523-.066v-6.35a3.587,3.587,0,0,0,.852.068.127.127,0,0,0,.2,0h.063a4.742,4.742,0,0,0,.922.061,7.668,7.668,0,0,0,1.242-.129c.456-.063.984-.129,1.444-.193.258-.07.517-.07.85-.133a3.843,3.843,0,0,0,.786-.2,17.109,17.109,0,0,0,4.05-1.573,10.275,10.275,0,0,0,1.248-.714,18.482,18.482,0,0,0,4.188-3.211,1.8,1.8,0,0,0,.594-.458,1.681,1.681,0,0,1,.394-.329c.388-.388.846-.85,1.246-1.242.589-.589,1.174-1.308,1.825-2.033A4.453,4.453,0,0,1,274.951,193.107Z" transform="translate(-254.591 -193.107)" fill="#a5735b"/>
                </g>
              </g>
            </g>
            <path id="Path_100" data-name="Path 100" d="M254.593,240.448v177.2l30.572-1.306,25.138-1.113-2.558-30.962-2.813-34.632c-4.059,1.708-8.642,3.733-13.031,5.7,1.179-13.682,1.7-26.249.918-36.53-3.076-38.23-7.853-69.386-11.586-89.744v-.066a40.149,40.149,0,0,0-1.047-12.37c-.127-.857-.328-1.7-.523-2.488-.263-.918-.454-1.766-.718-2.618-.2-.657-.4-1.308-.594-1.961-.129-.458-.328-.916-.453-1.312a44.368,44.368,0,0,0-1.708-4.712h-.127c.524,2.359,2.357,10.214,4.644,22.582v.068c-1.5,6.545-6.282,10.21-12.175,12.243-.063,0-.189.061-.263.061a43.1,43.1,0,0,1-13.018,1.963A2.195,2.195,0,0,1,254.593,240.448Z" transform="translate(-120.091 -64.781)" fill="#0e538c"/>
            <g id="Group_45" data-name="Group 45" transform="translate(155.971 138.376)">
              <g id="Group_44" data-name="Group 44">
                <path id="Path_101" data-name="Path 101" d="M314.633,295.743a96.858,96.858,0,0,1,6.022,11.91c-.324,5.564-.718,8.9-.718,8.9s-2.421,6.35-5.63,16.3c-.856,2.482-9.1,46.473-10.011,49.356-.2.523-.333,1.111-.524,1.636-3.01,1.5-2.339-1.119-7.579.983-1.564.651-3.272,1.306-5.04,2.088-.261.138-.585.265-1.051.46a16.4,16.4,0,0,0-1.57.655c-3.338,1.441-6.935,3.014-10.4,4.583,1.174-13.682,5.675-63.362,4.887-73.64-3.075-38.23-7.849-69.386-11.583-89.744v-.066c-.2-.981-.324-1.9-.523-2.813v-.068c-2.291-12.368-4.123-20.222-4.65-22.582h16.956v.134c4.71-.329,26.947-3.459,42.136,11.007-8.381-3.6-19.487-.342-23.213,1.952a20.033,20.033,0,0,0-4.133,3.141,20.965,20.965,0,0,0-4.578,6.219C282.563,248.61,310.049,288.8,314.633,295.743Z" transform="translate(-266.261 -203.329)" fill="#2a94f4"/>
                <path id="Path_102" data-name="Path 102" d="M312.455,353.466H270.326c.44-5.369,1-10.935,1.619-16.612.631-6.092,1.384-12.286,2.1-18.512.239-2.149.488-4.285.723-6.429a.052.052,0,0,0,.031-.015c5.117-1.871,11.844-10.567,19.219-13.48.175-.061.337-.132.513-.193,2.1-.719,4.193,5.106,6.342,4.326C302.257,317.179,307.189,336.265,312.455,353.466Z" transform="translate(-262.846 -123.668)" fill="#2a94f4"/>
              </g>
            </g>
            <path id="Path_103" data-name="Path 103" d="M254.593,207.288v39.078a2.15,2.15,0,0,0,.661,0,43.1,43.1,0,0,0,13.018-1.963c.075,0,.2-.061.263-.061,5.892-2.033,10.676-5.7,12.175-12.243v-.068c-2.287-12.368-4.118-20.222-4.644-22.582h-.918v-1.242c0-.784-.068-1.505-.068-2.226-.063-2.357-.063-4.582-.127-6.744v-2.747a34.722,34.722,0,0,1-5.759,5.825,12.884,12.884,0,0,1-1.96,1.441,11.107,11.107,0,0,1-1.573.981H265.6a18.779,18.779,0,0,1-9.494,2.618A11.051,11.051,0,0,1,254.593,207.288Z" transform="translate(-120.091 -70.698)" fill="#f4c7b1"/>
            <g id="Group_46" data-name="Group 46" transform="translate(174.348 140.835)">
              <path id="Path_104" data-name="Path 104" d="M424.2,286.264l1.514,2.7.046.052,11.827,20.908,1.827,3.218s-3.584,1.444-9.224,3.831c-5.134,2.169-11.949,5.02-19.335,8.217-2.035.9-4.065,1.8-6.171,2.686-14.365,6.372-29.486,13.174-37.058,17.528-16.518,9.434-30.262,12.729-38.636,12.556-8.33-.221-26.6-49.529-29.453-61.358-2.892-11.778-13.581-33.481-21.239-54.146a29.226,29.226,0,0,1,.471-22.68c3.691-8.339,10.65-13.728,14.946-14.589a20.345,20.345,0,0,1,5.167-.506,21.1,21.1,0,0,1,7.577,1.443c23.247,9.058,30.445,57.218,31.806,65.421a98.025,98.025,0,0,0,3.7,12.83c3.987,12.19,9.792,26.9,9.792,26.9,11.673-5.031,16.492-6.468,20.939-7.743a120.269,120.269,0,0,0,11.54-3.737c1.588-.589,3.286-1.275,5.112-1.9,4.138-1.511,8.874-3.148,13.426-4.686C413.885,289.493,424.2,286.264,424.2,286.264Z" transform="translate(-276.249 -204.665)" fill="#2a94f4"/>
            </g>
            <g id="Group_49" data-name="Group 49" transform="translate(116.168 119.572)">
              <g id="Group_48" data-name="Group 48">
                <g id="Group_47" data-name="Group 47">
                  <path id="Path_105" data-name="Path 105" d="M264.99,203.777v6.35a1.41,1.41,0,0,1-.523.066h-1.511a19.032,19.032,0,0,1-8.972-2.618h-.063a11.274,11.274,0,0,1-1.573-.981c-.65-.456-1.3-.916-1.96-1.441a34.729,34.729,0,0,1-5.761-5.825c.063-2.552,0-4.714,0-6.219.786.92,1.509,1.838,2.287,2.62a30.093,30.093,0,0,0,6.418,5.24,11.05,11.05,0,0,0,1.246.714,17.363,17.363,0,0,0,4.055,1.573,3.859,3.859,0,0,0,.784.2c.337.063.591.063.852.132.462.064.984.131,1.446.193a8.455,8.455,0,0,0,1.24.129,4.044,4.044,0,0,0,.852-.061.127.127,0,0,0,.2,0h.063A4.814,4.814,0,0,0,264.99,203.777Z" transform="translate(-244.629 -193.109)" fill="#a5735b"/>
                </g>
              </g>
            </g>
            <path id="Path_106" data-name="Path 106" d="M281.127,240.448v177.2l-30.572-1.306-25.136-1.113,2.554-30.962,2.813-34.632c4.059,1.708,8.642,3.733,13.031,5.7-1.183-13.682-1.7-26.249-.916-36.53,3.075-38.23,7.849-69.386,11.581-89.744v-.066a40.265,40.265,0,0,1,1.051-12.37c.127-.857.328-1.7.526-2.488.263-.918.451-1.766.714-2.618.2-.657.4-1.308.594-1.961.129-.458.327-.916.456-1.312a46.315,46.315,0,0,1,1.7-4.712h.127c-.523,2.359-2.359,10.214-4.646,22.582v.068c1.5,6.545,6.285,10.21,12.181,12.243.063,0,.191.061.261.061a43.112,43.112,0,0,0,13.018,1.963A2.2,2.2,0,0,0,281.127,240.448Z" transform="translate(-144.597 -64.781)" fill="#0e538c"/>
            <g id="Group_51" data-name="Group 51" transform="translate(52.401 138.749)">
              <g id="Group_50" data-name="Group 50">
                <path id="Path_107" data-name="Path 107" d="M272.627,203.531c-.523,2.359-2.359,10.214-4.646,22.582v.068c-.2.916-.328,1.833-.524,2.813v.066c-3.732,20.358-8.506,51.514-11.581,89.744-.784,10.278-.267,22.847.916,36.529-4.388-1.967-8.972-3.993-13.031-5.7-1.765-.786-3.472-1.437-5.036-2.088a118.394,118.394,0,0,1-11-5.112c-.191-.523-.327-1.108-.524-1.632-.916-2.881-1.765-5.632-2.615-8.114-3.211-9.953-5.63-16.3-5.63-16.3s-.39-3.334-.718-8.9a96.164,96.164,0,0,1,6.024-11.91c4.578-6.944,32.067-47.133,21.2-69.587a20.932,20.932,0,0,0-4.578-6.219,20.157,20.157,0,0,0-4.129-3.141c-3.722-2.293-18.4.3-26.781,3.9,15.187-14.472,40.993-17.191,45.706-16.862v-.134h16.948Z" transform="translate(-209.973 -203.531)" fill="#2a94f4"/>
                <path id="Path_108" data-name="Path 108" d="M259.192,351.463h-42.13c1.266-4.133,2.515-8.372,3.68-12.626,3.752-13.48,6.856-27.166,7.9-38.288,2.147.78,4.254,1.5,6.357,2.221,7.592,2.677,14.525,5.24,19.749,7.141.471,4.293.984,8.6,1.487,12.874.456,4.057.924,8.09,1.338,12.065C258.193,340.527,258.751,346.094,259.192,351.463Z" transform="translate(-204.018 -122.037)" fill="#2a94f4"/>
              </g>
            </g>
            <path id="Path_109" data-name="Path 109" d="M267.62,207.288v39.078a2.15,2.15,0,0,1-.661,0,43.112,43.112,0,0,1-13.018-1.963c-.068,0-.2-.061-.261-.061-5.9-2.033-10.679-5.7-12.181-12.243v-.068c2.287-12.368,4.125-20.222,4.646-22.582h.918v-1.242c0-.784.068-1.505.068-2.226.063-2.357.063-4.582.127-6.744v-2.747a34.661,34.661,0,0,0,5.761,5.825,13.069,13.069,0,0,0,1.96,1.441,11.109,11.109,0,0,0,1.573.981h.063a18.788,18.788,0,0,0,9.494,2.618A11.064,11.064,0,0,0,267.62,207.288Z" transform="translate(-131.09 -70.698)" fill="#f4c7b1"/>
            <g id="Group_54" data-name="Group 54" transform="translate(0 149.895)">
              <g id="Group_53" data-name="Group 53" transform="translate(113.358 148.969)">
                <g id="Group_52" data-name="Group 52">
                  <path id="Path_110" data-name="Path 110" d="M284.336,301.547a11.2,11.2,0,0,1-2.355,5.04s1.111,3.794-1.439,6.282a5.912,5.912,0,0,1-2.488,5.956s.786,3.536-1.836,5.043c0,0-5.7.721-7.783.329-2.624-.591-14.863-3.4-25.333-6.024l5.562-23.372v-.063c2.423-1.636,4.71-3.146,5.434-3.6,1.768-1.051,7.792-.719,14,1.242a115.539,115.539,0,0,1,14.667,5.63C283.751,298.533,284.726,298.734,284.336,301.547Z" transform="translate(-243.102 -290.55)" fill="#eea886"/>
                </g>
              </g>
              <path id="Path_111" data-name="Path 111" d="M301.136,359.733l-.723,3.014v.063l-5.562,23.372-.85,3.6s-3.6-1.375-9.371-3.472c-5.233-1.9-12.166-4.449-19.76-7.132-2.1-.723-4.2-1.444-6.346-2.225-14.862-5.112-30.575-10.413-39.085-12.376-18.525-4.322-30.837-11.259-36.857-17.083-5.952-5.825,14.207-54.4,20.168-65,5.892-10.606,12.823-33.777,21.272-54.133a29.178,29.178,0,0,1,15.774-16.3c8.383-3.6,17.154-2.819,20.877-.526a20.057,20.057,0,0,1,4.129,3.141,20.934,20.934,0,0,1,4.578,6.219c10.867,22.454-16.623,62.643-21.2,69.587a96.306,96.306,0,0,0-6.024,11.91c-5.367,11.647-11.128,26.376-11.128,26.376,11.977,4.26,16.492,6.48,20.615,8.573a118.4,118.4,0,0,0,11,5.112c1.564.651,3.272,1.3,5.036,2.088,4.059,1.708,8.642,3.733,13.031,5.7C291.377,355.087,301.136,359.733,301.136,359.733Z" transform="translate(-181.494 -209.589)" fill="#2a94f4"/>
            </g>
            <g id="Group_57" data-name="Group 57" transform="translate(85.929)">
              <path id="Path_112" data-name="Path 112" d="M321.742,206.545l-.563-25.65a96.1,96.1,0,0,0-.611-12.488,42.605,42.605,0,0,0-3.389-11.616,37.938,37.938,0,0,0-15.92-17.4,49.945,49.945,0,0,0-46.532,0,37.969,37.969,0,0,0-15.944,17.4,43.025,43.025,0,0,0-3.378,11.616A91.975,91.975,0,0,0,234.8,180.9l-.574,25.65h-3.214l-.55-25.65a93.811,93.811,0,0,1,.322-13.108,47.859,47.859,0,0,1,3.444-13.007,41.931,41.931,0,0,1,17.855-19.988,53.644,53.644,0,0,1,51.805,0,41.857,41.857,0,0,1,17.846,19.988,48.371,48.371,0,0,1,3.467,13.007,95.217,95.217,0,0,1,.324,13.108l-.558,25.65Z" transform="translate(-226.353 -128.124)" fill="#0e538c"/>
              <g id="Group_55" data-name="Group 55" transform="translate(0 57.261)">
                <path id="Path_113" data-name="Path 113" d="M235.423,194.331c-5.772,0-7.227-4.138-7.227-9.25V168.5c0-5.106,1.455-9.253,7.227-9.253h1.38v35.087Z" transform="translate(-228.195 -159.244)" fill="#0b4870"/>
                <rect id="Rectangle_33" data-name="Rectangle 33" width="2.983" height="35.087" transform="translate(8.608 0.002)" fill="#2a94f4"/>
              </g>
              <g id="Group_56" data-name="Group 56" transform="translate(92.554 57.261)">
                <path id="Path_114" data-name="Path 114" d="M281.5,194.331c5.778,0,7.244-4.138,7.244-9.25V168.5c0-5.106-1.466-9.253-7.244-9.253h-1.38v35.087Z" transform="translate(-277.134 -159.244)" fill="#0b4870"/>
                <rect id="Rectangle_34" data-name="Rectangle 34" width="2.984" height="35.087" transform="translate(0 0.002)" fill="#2a94f4"/>
              </g>
              <path id="Path_115" data-name="Path 115" d="M257.42,210.287v-3.218c13.314,0,38.671-18.921,38.671-28.756H299.3C299.3,190.762,271.253,210.287,257.42,210.287Z" transform="translate(-203.646 -85.965)" fill="#cce9ff"/>
              <path id="Path_116" data-name="Path 116" d="M263.477,201.357h-4.287c-3.557,0-6.434-2.006-6.434-4.5s2.878-4.484,6.434-4.484h4.287c3.553,0,6.433,2.006,6.433,4.484S267.03,201.357,263.477,201.357Z" transform="translate(-207.565 -74.151)" fill="#0b4870"/>
            </g>
          </g>
        </g>
        <g id="Group_61" data-name="Group 61">
          <path id="Path_117" data-name="Path 117" d="M286.841,122.057v25.416l-.153,34.5-.2,41.672-.129,30.743-30.627-30.86-9.345-.033-123.929-.58a45.488,45.488,0,0,1-36.737-44.6V122.057a45.465,45.465,0,0,1,40.311-45.148l124.222.572A45.456,45.456,0,0,1,286.841,122.057Z" transform="translate(-85.716 -76.909)" fill="#2a94f4"/>
          <g id="Group_60" data-name="Group 60" transform="translate(34.91 39.694)">
            <path id="Path_118" data-name="Path 118" d="M232.269,105.156a6.673,6.673,0,0,1-6.668,6.679H111.365a6.676,6.676,0,0,1-6.676-6.679h0a6.674,6.674,0,0,1,6.676-6.674H225.6a6.672,6.672,0,0,1,6.668,6.674Z" transform="translate(-104.689 -98.482)" fill="#cce9ff" opacity="0.8"/>
            <path id="Path_119" data-name="Path 119" d="M232.269,118.666a6.685,6.685,0,0,1-6.668,6.681H111.365a6.688,6.688,0,0,1-6.676-6.681h0a6.677,6.677,0,0,1,6.676-6.679H225.6a6.673,6.673,0,0,1,6.668,6.679Z" transform="translate(-104.689 -87.138)" fill="#cce9ff" opacity="0.8"/>
            <path id="Path_120" data-name="Path 120" d="M197.363,132.178a6.688,6.688,0,0,1-6.687,6.661H111.35a6.676,6.676,0,0,1,0-13.351h79.326A6.693,6.693,0,0,1,197.363,132.178Z" transform="translate(-104.682 -75.797)" fill="#cce9ff" opacity="0.8"/>
          </g>
        </g>
      </g>
    </g>
  </g>
</svg>
