<?xml version="1.0" encoding="utf-8"?>
<!-- Generator: Adobe Illustrator 24.1.1, SVG Export Plug-In . SVG Version: 6.00 Build 0)  -->
<svg version="1.1" id="Layer_1" xmlns="http://www.w3.org/2000/svg" xmlns:xlink="http://www.w3.org/1999/xlink" x="0px" y="0px"
	 viewBox="0 0 1000 1000" style="enable-background:new 0 0 1000 1000;" xml:space="preserve">
<style type="text/css">
	.st0{fill:#FBAE44;stroke:#30262F;stroke-width:13.5;stroke-miterlimit:10;}
	.st1{fill:#6B8FBC;}
	.st2{fill:#92B2DD;}
	.st3{fill:#30262F;}
	.st4{fill:#FBAE42;}
	.st5{fill:#FBAE44;}
	.st6{fill:#D1E3F5;}
	.st7{fill:#159D49;stroke:#30262F;stroke-width:12;stroke-linecap:round;stroke-linejoin:round;stroke-miterlimit:10;}
	.st8{fill:#08793D;}
	.st9{fill:#F28F24;}
	.st10{fill:#DD7727;}
	.st11{fill:#20A2DC;}
	.st12{fill:#76C5EE;}
	.st13{fill:#087AA4;}
	.st14{fill:none;stroke:#30262F;stroke-width:12;stroke-linecap:round;stroke-linejoin:round;stroke-miterlimit:10;}
	.st15{fill:none;stroke:#30262F;stroke-width:9;stroke-linecap:round;stroke-linejoin:round;stroke-miterlimit:10;}
	.st16{fill:none;stroke:#30262F;stroke-width:14.4;stroke-linecap:round;stroke-linejoin:round;stroke-miterlimit:10;}
	.st17{fill:#D58928;}
	.st18{fill:#6F89B0;}
	.st19{fill:#CC872F;}
	.st20{fill:#CEDCEB;}
	.st21{fill:#FECD86;}
	.st22{fill:none;stroke:#30262F;stroke-width:9;stroke-linecap:round;stroke-miterlimit:10;}
</style>
<g id="Layer_2">
	<path class="st0" d="M292.65,432.34c-0.33,9.64,26.77,82.86,87.7,90.65c83.21,10.64,119.08-23.67,161.98-91.31"/>
	<g>
		<path class="st1" d="M532.41,428.72c-0.67,3.58-5.03,25.29-21.98,45.51c-11.9,14.2-23.2,19.52-26.51,21.03
			c-24.18,11.01-43.79-2.83-39.76-15.71C447.42,469.11,468.03,453.36,532.41,428.72z"/>
	</g>
	<g>
		<g>
			<g>
				<path class="st2" d="M416.23,336.06c1.85,5.39,0.68,8.02-4.07,10.62c-6.82,3.74-13.32,8.06-19.85,12.31
					c-22.16,14.44-40.72,31.69-45.39,59.45c-0.67,3.98-2.72,3.56-5.7,3.13c-12.79-1.86-25.64-2.76-38.29,0.73
					c-4.67,1.29-4.69-1.87-5.67-4.57c-1.18-3.26-1.13-5.6,3.05-6.55c4.85-1.1,8.55-3.92,11.16-8.34c8.94-15.16,0.89-45.3-14.99-53
					c-4.85-2.35-4.08-4.6-3.14-8.23c9.59-36.92,45.07-56.76,83.68-44.86C396.07,301.73,409.18,315.58,416.23,336.06z M324.62,337.58
					c-3.68,5.76-3.36,12.14,0.25,17.77c2.59,4.04,5.66,3.62,7.99-0.92c5.48-10.68,5.58-10.72,15.39-5.48
					c1.69,0.91,3.11,1.9,4.76,0.53c1.93-1.61,1.67-3.61,0.5-5.62c-3.08-5.3-7.14-9.47-13.21-11.46
					C334.01,330.81,328.28,331.84,324.62,337.58z"/>
			</g>
		</g>
		<path class="st3" d="M280.05,399.05c-1.49,0.13-2.99,0.27-4.48,0.22c-6.77-0.22-9.1-3.62-6.9-10.56
			c3.29-8.24,8.06-16.07,15.66-21.9c4.11-3.15,7.21-3.02,10.18,1.85C304.87,385.68,299.44,397.3,280.05,399.05z M346.92,418.44
			c-0.67,3.98-2.72,3.56-5.7,3.13c-12.79-1.86-25.64-2.76-38.29,0.73c-4.67,1.29-4.69-1.87-5.67-4.57c-1.18-3.26-1.13-5.6,3.05-6.55
			c4.85-1.1,8.55-3.92,11.16-8.34c8.94-15.16,0.89-45.3-14.99-53c-4.85-2.35-4.08-4.6-3.14-8.23c9.59-36.92,45.07-56.76,83.68-44.86
			c19.04,4.99,32.15,18.83,39.19,39.31c1.85,5.39,0.68,8.02-4.07,10.62c-6.82,3.74-13.32,8.06-19.85,12.31
			C370.15,373.43,351.59,390.69,346.92,418.44z M404.49,473.74c-33.41-4.9-51.09-37.85-36.55-68.22
			c4.22-8.83,10.94-15.67,18.49-21.71c10.33-8.26,21.63-15.07,32.86-21.99c29-17.86,56.84-37,74.68-67.25
			c1.82-3.09,3.36-4.26,6.73-1.19c15.73,14.36,18.07,36.55,5.17,53.65c-6.45,8.55-14.85,14.73-24.65,19.01
			c-2.94,1.28-5.41,2.96-4.8,6.63c0.58,3.42,3.32,4.93,6.31,5.65c5.97,1.43,11.24-0.79,16.21-3.76
			c11.88-7.11,20.73-17.07,27.48-30.37c11.59,34.78-14.19,70.63-50.13,71.31c-3.74,0.07-7.65-0.22-8.65,4.37
			c-1.05,4.86,1.67,7.98,6,9.74c5.98,2.44,12.29,1.55,18.5,1.57c1.63,0,3.67-1.77,4.76,0.3c1.05,1.98,0.07,4.34-1.45,5.75
			c-4.39,4.06-8.84,8.1-13.61,11.69C458.96,466.13,434.32,478.11,404.49,473.74z M529.86,506.84c-9.88,0.57-13.42-7.03-18.55-13.02
			c-3.57-4.16-3.08-6.59,0.87-10.17c15.59-14.13,28.83-30.2,37.95-49.29c-0.62,0.08-1.26,0.13-1.94,0.13
			c-6.83,0-10.97-4.17-12.43-9.23c-0.06,0.14-0.12,0.28-0.18,0.42c-12.73,26.98-33.85,46.61-57.06,64.34
			c-14.04,10.72-14.06,10.69-25.19-3.2c-0.31-0.39-0.27-1.06-0.47-1.9c43.64-18.64,74.66-49.32,90.06-95.39
			c0.01,0.1,0.01,0.19,0.02,0.29c0.03-2.15,0.59-4.35,1.5-6.16c-0.16-0.76-0.27-1.52-0.3-2.28c-0.14-3.18,0.95-5.94,2.77-8.12
			c-1.18-2.08-1.76-4.5-1.87-6.88c-0.07-1.62,0.3-3.35,0.97-4.97c-0.17-1.42-0.33-2.85-0.47-4.29c-0.01-0.02-0.02-0.04-0.02-0.06
			c-0.49-1.51-0.58-3.23-0.38-4.93c-0.12-2.03-0.17-4.05-0.14-6.04c-0.66-1.57-1.19-3.2-1.55-4.96
			c-4.92-23.55-16.54-43.52-33.09-60.75c-10.05-10.46-20.87-9.24-28.57,3.38c-11.24,18.41-25.65,33.73-43.18,46.3
			c-4.31,3.09-5.91,3.17-7.78-2.33c-14.05-41.34-54.44-54.57-84.58-51.01c-36.35,4.29-65.07,32.94-70.42,70.18
			c-0.68,4.73-2.35,8.13-5.84,11.48c-8.11,7.76-14.04,17.09-16.97,28.1c-4.12,15.5,3.73,27.39,19.56,28.32
			c5.53,0.32,7.57,2.03,8.99,7.2c2.19,7.95,4.41,14.97,6.72,21.35c5.79-1.96,11.42-4.02,17.51-4.45c0.83-0.79,2.21-1.31,4.25-1.62
			c11.12-1.69,22.09-1,33.04,1.24c2.84,0.58,4.9,1.7,5.69,4.85c7.79,31.1,40.47,51.07,76.66,46.75c5.43-0.65,9.2,0.6,12.41,4.92
			c2.5,3.36,5.36,6.46,8.28,9.47c2.32,2.4,3.14,4.27,2.32,6.06c1,1.42,2.16,3.33,3.12,5.73c0.3,0.76,0.51,1.37,0.81,2.26
			c0.56,1.68,1.23,3.83,1.88,6.38c6.09-2.49,11.96-5.53,17.54-9.33c9.95-6.79,9.84-6.81,12.68,4.64c0.56,2.26,1.86,4.38,3.01,6.46
			c0.94,1.7,2.6,2.69,4.5,2.18c1.64-0.44,1.87-2.1,1.94-3.67c0.27-6.29,2.77-9.15,9.76-7.97c4.11,0.69,3.83-2.53,2.05-5.3
			c-3.23-2.23-6.75-3.63-10.68-4.12c-2.35-0.29-3.46-2.32-4.08-4.27c-0.52-1.63,1.03-2.5,2.19-3.43c2.42-1.96,3.92,0.1,5.31,1.34
			c3.29,2.94,6.35,6.15,9.51,9.25c5.64,1.85,4.8,7.79,7.34,11.59c1.66,2.48,3.44,5.63,6.88,4.69c3.01-0.83,1.65-3.8,1.54-6.15
			c-0.2-4.2,1.83-6.78,6.33-7.01c1.96-0.1,4.78,0.69,5.11-2.2C535.58,508.11,532.21,506.7,529.86,506.84z"/>
		<path class="st4" d="M526.43,344.2c-6.75,13.3-15.6,23.26-27.48,30.37c-4.97,2.98-10.25,5.2-16.21,3.76
			c-2.99-0.72-5.73-2.23-6.31-5.65c-0.62-3.67,1.85-5.34,4.8-6.63c9.8-4.28,18.2-10.46,24.65-19.01
			c12.9-17.1,10.55-39.29-5.17-53.65c-3.37-3.07-4.9-1.9-6.73,1.19c-17.84,30.25-45.68,49.39-74.68,67.25
			c-11.23,6.92-22.53,13.73-32.86,21.99c-7.55,6.04-14.27,12.88-18.49,21.71c-14.54,30.37,3.15,63.32,36.55,68.22
			c29.83,4.37,54.46-7.62,77.35-24.82c4.77-3.59,9.22-7.63,13.61-11.69c1.52-1.41,2.51-3.77,1.45-5.75c-1.1-2.07-3.13-0.29-4.76-0.3
			c-6.2-0.01-12.51,0.87-18.5-1.57c-4.33-1.77-7.06-4.89-6-9.74c1-4.59,4.91-4.3,8.65-4.37
			C512.24,414.83,538.01,378.98,526.43,344.2z"/>
		<path class="st5" d="M268.67,388.72c-2.19,6.93,0.14,10.34,6.9,10.56c1.49,0.05,2.99-0.08,4.48-0.22
			c19.39-1.76,24.82-13.38,14.47-30.38c-2.97-4.87-6.07-5-10.18-1.85C276.73,372.65,271.96,380.47,268.67,388.72z"/>
		<path class="st6" d="M507.98,510.72c-3.15-3.1-6.21-6.3-9.51-9.25c-1.39-1.24-2.89-3.3-5.31-1.34c-1.16,0.94-2.71,1.8-2.19,3.43
			c0.62,1.96,1.73,3.98,4.08,4.27c3.93,0.49,7.45,1.89,10.68,4.12C506.48,511.55,507.23,511.14,507.98,510.72z"/>
		<path class="st3" d="M340.29,332.41c-6.29-1.6-12.01-0.56-15.68,5.18c-3.68,5.76-3.36,12.14,0.25,17.77
			c2.59,4.04,5.66,3.62,7.99-0.92c5.48-10.68,5.58-10.72,15.39-5.48c1.69,0.91,3.11,1.9,4.76,0.53c1.93-1.61,1.67-3.61,0.5-5.62
			C350.42,338.57,346.37,334.4,340.29,332.41z"/>
	</g>
	<path class="st7" d="M755.11,585.07c0,0-51.4,61.1-101.89,82.81l-72.66-76.31l84.78-70.69
		C665.34,520.89,733.66,572.23,755.11,585.07"/>
	<g>
		<path class="st8" d="M577.52,601.25c-0.54,0-1.09-0.07-1.63-0.22c-1.9-0.54-3.42-1.98-4.06-3.85l-4.96-14.65
			c-0.78-2.31-0.09-4.87,1.77-6.47l73.51-63.36c1.11-0.96,2.51-1.46,3.92-1.46c0.83,0,1.67,0.17,2.46,0.53l16.26,7.3
			c1.89,0.85,3.21,2.61,3.49,4.66s-0.51,4.1-2.1,5.42l-84.8,70.71C580.27,600.77,578.9,601.25,577.52,601.25z"/>
		<path class="st3" d="M646.06,517.24l16.26,7.3l-84.8,70.71l-4.97-14.65L646.06,517.24 M646.06,505.24c-2.82,0-5.62,1-7.84,2.91
			l-73.51,63.36c-3.7,3.19-5.1,8.31-3.53,12.94l4.97,14.65c1.27,3.75,4.3,6.63,8.11,7.7c1.07,0.3,2.17,0.45,3.25,0.45
			c2.78,0,5.5-0.96,7.69-2.78l84.8-70.71c3.18-2.65,4.77-6.75,4.2-10.85c-0.56-4.1-3.2-7.62-6.97-9.31l-16.26-7.3
			C649.4,505.59,647.73,505.24,646.06,505.24L646.06,505.24z"/>
	</g>
	<g>
		<path class="st9" d="M632.67,683.73c-1.63,0-3.18-0.67-4.31-1.83l-65.83-68.26c-1.28-1.33-1.88-3.17-1.62-4.99
			c0.25-1.82,1.33-3.43,2.92-4.36L658,549.45c0.94-0.54,1.98-0.81,3.02-0.81c1.25,0,2.49,0.39,3.54,1.15l85.08,62.03
			c1.65,1.2,2.57,3.16,2.46,5.19c-1.04,18.11,3.6,35.71,3.64,35.88c0.79,2.96-0.77,6.04-3.63,7.14
			c-1.59,0.62-39.32,15.16-67.37,19.67c-24.67,3.97-50.91,4.02-52.01,4.02C632.72,683.73,632.67,683.73,632.67,683.73z"/>
		<path class="st3" d="M661.02,554.64l85.08,62.03c-1.1,19.28,3.84,37.77,3.84,37.77s-38.41,14.88-66.16,19.34
			c-24.22,3.9-49.95,3.94-51.06,3.94c-0.02,0-0.04,0-0.04,0l-65.82-68.26L661.02,554.64 M661.02,542.64c-2.08,0-4.16,0.54-6.04,1.63
			l-94.17,54.83c-3.18,1.85-5.34,5.07-5.85,8.72c-0.51,3.65,0.69,7.33,3.25,9.98l65.82,68.26c2.26,2.35,5.38,3.67,8.64,3.67
			c1.16,0,27.87-0.05,53.01-4.09c28.67-4.61,66.97-19.38,68.58-20c5.71-2.21,8.84-8.37,7.26-14.29c-0.04-0.15-4.42-16.98-3.45-33.99
			c0.23-4.07-1.62-7.98-4.91-10.38l-85.08-62.03C665.99,543.41,663.51,542.64,661.02,542.64L661.02,542.64z"/>
	</g>
	<g>
		<path class="st10" d="M566.86,615.47c-1.16,0-2.32-0.34-3.31-1c-1.59-1.05-2.59-2.8-2.68-4.71l-0.81-16.72
			c-0.15-3.08,2.06-5.75,5.08-6.22c5.75-1.4,60.35-23.84,93.58-37.72c0.74-0.31,1.53-0.46,2.31-0.46c1.24,0,2.47,0.38,3.5,1.13
			c1.69,1.22,2.63,3.22,2.48,5.3l-1.51,21.13c-0.17,2.43-1.8,4.52-4.12,5.28c-11.88,3.87-91.63,33.32-92.44,33.62
			C568.26,615.34,567.56,615.47,566.86,615.47z"/>
		<g>
			<path class="st3" d="M661.02,554.64L661.02,554.64 M661.02,554.64l-1.51,21.13c-12.12,3.95-92.65,33.7-92.65,33.7l-0.81-16.72
				C571.06,592.22,661.02,554.64,661.02,554.64 M661.02,542.64c-0.12,0-0.24,0-0.36,0.01c-1.6,0.05-3.13,0.41-4.51,1.03
				c-40.23,16.8-85.85,35.41-92.35,37.29c-5.82,1.11-10.02,6.35-9.73,12.37l0.81,16.72c0.18,3.82,2.18,7.32,5.37,9.43
				c1.99,1.32,4.3,1.99,6.62,1.99c1.4,0,2.81-0.25,4.16-0.74c0.8-0.3,80.45-29.71,92.22-33.55c4.64-1.51,7.9-5.68,8.25-10.55
				l1.49-20.85c0.04-0.37,0.05-0.75,0.05-1.14c0-6.59-5.31-11.94-11.89-12C661.1,542.64,661.06,542.64,661.02,542.64L661.02,542.64z
				 M661.02,566.64L661.02,566.64L661.02,566.64L661.02,566.64z"/>
		</g>
	</g>
	<g>
		<path class="st11" d="M572.79,744.64c-2.51-0.05-4.72-1.65-5.54-4.02l-39.45-112.93c-0.54-1.54-0.43-3.23,0.31-4.68
			c0.73-1.46,2.03-2.55,3.59-3.03l109.57-33.8c0.58-0.18,1.18-0.27,1.77-0.27c1.45,0,2.88,0.53,4,1.52l96.86,86.44
			c2.43,2.17,2.69,5.89,0.57,8.37l-35.95,42.19c-0.95,1.11-2.27,1.84-3.72,2.05c-29.83,4.26-127.51,18.16-131.85,18.16
			C572.89,744.64,572.83,744.64,572.79,744.64z"/>
		<path class="st3" d="M643.02,591.91l96.86,86.44l-35.95,42.2c0,0-126.75,18.1-131.01,18.1c-0.01,0-0.02,0-0.02,0l-39.45-112.93
			L643.02,591.91 M643.02,579.91c-1.18,0-2.37,0.17-3.54,0.53l-109.57,33.8c-3.11,0.96-5.7,3.15-7.17,6.06
			c-1.47,2.91-1.69,6.29-0.62,9.37l39.45,112.93c1.65,4.73,6.07,7.93,11.07,8.04c0.09,0,0.2,0,0.28,0c3.39,0,48.04-6.13,132.7-18.22
			c2.9-0.41,5.54-1.87,7.44-4.1l35.95-42.2c4.23-4.96,3.72-12.39-1.15-16.74l-96.86-86.44
			C648.78,580.96,645.93,579.91,643.02,579.91L643.02,579.91z"/>
	</g>
	<g>
		<path class="st12" d="M703.86,726.54c-1.78-0.02-3.47-0.84-4.59-2.23L614.5,619.56c-1.93-2.39-1.75-5.84,0.42-8.02l23.86-23.87
			c1.17-1.17,2.71-1.76,4.25-1.76c1.42,0,2.85,0.5,3.99,1.52l96.86,86.44c2.43,2.17,2.69,5.89,0.57,8.37l-35.95,42.19
			c-1.14,1.34-2.81,2.11-4.57,2.11C703.91,726.54,703.89,726.54,703.86,726.54z"/>
		<path class="st3" d="M643.02,591.91l96.86,86.44l-35.95,42.2l-84.77-104.76L643.02,591.91 M643.03,579.91
			c-3.08,0-6.15,1.18-8.49,3.52l-23.86,23.87c-4.34,4.34-4.7,11.26-0.84,16.03l84.77,104.76c2.24,2.77,5.61,4.41,9.18,4.45
			c0.05,0,0.1,0,0.15,0c3.51,0,6.85-1.54,9.13-4.22l35.95-42.2c4.23-4.96,3.72-12.39-1.14-16.74l-96.86-86.44
			C648.73,580.92,645.88,579.91,643.03,579.91L643.03,579.91z"/>
	</g>
	<g>
		<path class="st13" d="M533.45,631.71c-2.53,0-4.81-1.59-5.66-4.03c-0.92-2.65,0.12-5.59,2.5-7.07
			c5.34-3.31,17.46-15.01,21.68-19.24c0.9-0.9,2.06-1.49,3.31-1.69l86.8-13.7c0.31-0.05,0.63-0.07,0.94-0.07
			c2.02,0,3.93,1.02,5.05,2.76c1.29,2,1.27,4.57-0.05,6.56c-1.2,1.81-7.35,11.01-10.57,14.25c-3.29,3.31-12.99,9.97-14.91,11.27
			c-0.8,0.55-1.72,0.89-2.69,1l-85.71,9.93C533.91,631.7,533.68,631.71,533.45,631.71z"/>
		<path class="st3" d="M643.02,591.91L643.02,591.91 M643.02,591.91c0,0-6.86,10.35-9.83,13.33c-3.05,3.07-14.03,10.54-14.03,10.54
			l-85.71,9.93c7.1-4.4,22.77-20.1,22.77-20.1L643.02,591.91 M643.03,579.91c-0.2,0-0.39,0-0.59,0.01c-0.51,0.02-1.01,0.08-1.5,0.17
			l-86.58,13.67c-2.51,0.4-4.83,1.58-6.62,3.38c-6.1,6.11-16.53,15.86-20.6,18.38c-4.77,2.96-6.86,8.84-5.01,14.15
			c1.69,4.86,6.27,8.05,11.32,8.05c0.46,0,0.92-0.03,1.39-0.08l85.71-9.93c1.93-0.22,3.77-0.91,5.37-2c2.8-1.9,12.2-8.4,15.78-12
			c3.44-3.46,9.26-12.07,11.18-14.96c1.35-1.94,2.14-4.3,2.14-6.84c0-6.43-5.06-11.69-11.42-11.99
			C643.41,579.91,643.22,579.91,643.03,579.91L643.03,579.91z M643.02,603.91L643.02,603.91L643.02,603.91L643.02,603.91z"/>
	</g>
	<g>
		<line class="st14" x1="661.83" y1="578.05" x2="750.7" y2="655.89"/>
	</g>
	<path class="st14" d="M556.88,516.42"/>
	<path class="st14" d="M565.65,582.33"/>
	<path class="st15" d="M534.25,328.89c1.37,1.1,9.24,19.07,8.93,35.1c-0.29,14.8-9.07,35.91-10.62,37.21"/>
	<path class="st16" d="M507.98,435.97c2.39-1.94,6.2-4.48,11.39-5.99c10.75-3.12,19.92,0.38,22.96,1.7"/>
	<g>
		<path class="st17" d="M445.83,514.75c3.49-3.28,4.78-2.35,2.78-6.81c-1.42-3.16-9.36-10.96-12.95-14.97
			c-2.46-2.74-5.26-3.34-8.86-2.84c-36.98,3.06-55.25-6.94-75.4-38.82c-1.42,3.97-0.39,11.43,0.71,15.13
			c4.02,13.44,10.19,19.36,20.44,28.36c3.41,2.99,6.36,6.23,8.54,10.25c3.14,5.8,1.11,8.41-2.04,10.89
			c7.8,1.13,29.2,2.63,37.25,2.19"/>
		<path class="st18" d="M362.81,293.5c2.03,3.35,5.49,4.16,8.89,5.42c11.68,4.3,20.56,12.06,25.97,23.26
			c3.4,7.03,2.01,13.69-2.95,19.94c-6.96,8.76-16.09,16.19-18.22,28.11c12.71-9.92,25.5-15.03,38.24-24.91
			c2.03-1.58,3.15-3.94,2.42-6.94C412.11,315.97,388.95,294.13,362.81,293.5z"/>
		<path class="st19" d="M526.43,344.2c-5.3,7.41-10.04,15.46-16.44,22.17c0.06,19.24-9.77,33.76-21.27,47.71
			c1.04,0.1,2.14-0.8,3.18-0.71c0,0,0.12-1.05,0,0c4.5-2.38,8.88-3.72,13.37-6.1l0.04-0.04c0.7-0.49,1.4-0.98,2.1-1.47l-0.07,0.04
			c17.05-14.76,25.22-33.5,20.66-55.61"/>
		<path class="st19" d="M488.45,307.92c12.88,12.87,15.47,29.24,7.2,45.16c-1.09,2.1-1.85,4.38-2.77,6.58
			c25.88-16.85,30.41-51.75,3.69-69.65c-2.7,4.58-6.97,10.76-9.67,15.34C487.42,306.2,487.94,307.06,488.45,307.92z"/>
		<path class="st20" d="M315.82,383.97c4.47-9.85,1.58-19.29-2.32-28.21c-8.68-19.91-6.66-32.32,8.72-48.21
			c2.14-2.21,5.86-3.71,4.35-7.99c-18.43,9.27-28.75,24.72-33.36,44.45c-0.43,1.86-1.97,4.39,0.86,5.47
			C309.96,355.49,313.17,369.53,315.82,383.97z"/>
		<path class="st21" d="M268.53,394.55c1.35-6.16,4.9-11.18,10.29-15.12c3.21-2.35,6.5-5.47,11.46-3.68
			c5.56,2.01,6.71,6.59,7.26,11.08c0.21,1.73-0.13,3.48-0.22,5.23c5.97-5.98-0.01-26.89-8.43-29.18c-1.14-0.31-2.64,0.08-3.8,0.46
			C275.32,366.57,265.52,385.12,268.53,394.55z"/>
		<path class="st21" d="M428.14,372.56c-3.45-1.38-6.82-2.04-10.29,0.12c-13.87,8.67-28.54,15.96-39.19,29.27
			c-16.27,20.33-8.85,50.73,15.34,60.1c1.22-2.61,1.04-5.11-0.23-7.72c-10.54-21.7-3.28-39.78,11.81-56
			c5.06-5.44,10.73-10.33,16.36-15.2C425.29,380.23,427.2,376.74,428.14,372.56z"/>
		<path class="st21" d="M452.27,352.33c-7.52,1.45-12.31,7.7-18.95,10.71c-0.45,7.31,2.62,7.7,7.73,3.9
			C446.16,363.14,449.91,358.26,452.27,352.33z"/>
	</g>
	<path class="st5" d="M300.98,439.62c0.01-0.21,0.57-0.18,3.1-0.8c4.21-1.02,5.43-1.78,6.21-1.1c0.6,0.53,0.75,1.75,0.28,2.49
		C309.06,442.6,300.95,440.44,300.98,439.62z"/>
	<line class="st22" x1="499.42" y1="524.9" x2="533.45" y2="608.81"/>
	<line class="st22" x1="636.67" y1="609.47" x2="499.42" y2="520.89"/>
	<line class="st22" x1="665.43" y1="564.28" x2="530.07" y2="513.85"/>
	<line class="st22" x1="561.55" y1="575.19" x2="529.25" y2="518.21"/>
	<line class="st22" x1="656.42" y1="517.24" x2="535.19" y2="511.65"/>
</g>
</svg>
