<svg xmlns="http://www.w3.org/2000/svg" width="56" height="62.857" viewBox="0 0 56 62.857">
  <g id="Group_13" data-name="Group 13" transform="translate(-4 -0.571)">
    <g id="Group_11" data-name="Group 11">
      <path id="Path_1" data-name="Path 1" d="M15,20V47.208C15,49.333,16.276,51,18.463,51h2.855A2.1,2.1,0,0,0,21,52.075v7.706a4.017,4.017,0,0,0,8,0V52.075A1.98,1.98,0,0,0,28.519,51h6.964A1.979,1.979,0,0,0,35,52.075v7.706a4.017,4.017,0,0,0,8,0V52.075A2.1,2.1,0,0,0,42.683,51h2.859C47.729,51,49,49.333,49,47.208V20H15Z" fill="#57c927"/>
      <path id="Path_2" data-name="Path 2" d="M8,20.443A3.927,3.927,0,0,0,4,24.09V39.705a3.926,3.926,0,0,0,4,3.647,3.927,3.927,0,0,0,4-3.647V24.091a3.928,3.928,0,0,0-4-3.648Z" fill="#57c927"/>
      <path id="Path_3" data-name="Path 3" d="M40.609,5.828l.7-1.024.7-1.012,1.557-2.275A.594.594,0,0,0,43.39.674a.628.628,0,0,0-.863.17L40.15,4.307,39.435,5.35a21.444,21.444,0,0,0-14.869,0l-.711-1.042-.7-1.023L21.482.846a.639.639,0,0,0-.869-.17.6.6,0,0,0-.174.843L22,3.795l.7,1.013.7,1.021C18.092,8.234,14.5,13,14.5,18h35C49.5,13,45.91,8.234,40.609,5.828ZM24.5,13.145a1.825,1.825,0,1,1,1.875-1.826A1.849,1.849,0,0,1,24.5,13.145Zm15,0a1.825,1.825,0,1,1,1.875-1.826A1.851,1.851,0,0,1,39.5,13.145Z" fill="#57c927"/>
    </g>
    <path id="Path_4" data-name="Path 4" d="M8.178,28.595C6.619,28.595,5,27.124,4,24.791V39.706a3.926,3.926,0,0,0,4,3.647,3.927,3.927,0,0,0,4-3.647V25.569C11,27.443,9.554,28.6,8.178,28.6Z" fill="#1cb71c"/>
    <path id="Path_5" data-name="Path 5" d="M56,20.443a3.927,3.927,0,0,0-4,3.647V39.705a4.017,4.017,0,0,0,8,0V24.091a3.928,3.928,0,0,0-4-3.648Z" fill="#57c927"/>
    <path id="Path_6" data-name="Path 6" d="M56.178,28.595c-1.559,0-3.178-1.471-4.178-3.8V39.706a4.017,4.017,0,0,0,8,0V25.569c-1,1.874-2.446,3.026-3.822,3.026Z" fill="#1cb71c"/>
    <path id="Path_7" data-name="Path 7" d="M32,22.988c-7.91,0-15-.915-17-2.214V47.208C15,49.333,16.276,51,18.463,51h2.855A2.1,2.1,0,0,0,21,52.075v7.706a4.017,4.017,0,0,0,8,0V52.075A1.98,1.98,0,0,0,28.519,51h6.964A1.979,1.979,0,0,0,35,52.075v7.706a4.017,4.017,0,0,0,8,0V52.075A2.1,2.1,0,0,0,42.683,51h2.859C47.729,51,49,49.333,49,47.208V20.773C47,22.072,39.911,22.988,32,22.988Z" fill="#1cb71c"/>
    <path id="Path_8" data-name="Path 8" d="M41.376,11.318a1.877,1.877,0,0,1-3.752,0,1.787,1.787,0,0,1,.642-1.364,38.673,38.673,0,0,0-12.532,0,1.783,1.783,0,0,1,.643,1.364,1.876,1.876,0,0,1-3.751,0,1.784,1.784,0,0,1,.156-.726,22.679,22.679,0,0,0-7.518,3.351A13.269,13.269,0,0,0,14.5,18H49.5a13.278,13.278,0,0,0-.76-4.055,22.638,22.638,0,0,0-7.516-3.355,1.812,1.812,0,0,1,.154.728Z" fill="#1cb71c"/>
    <path id="Path_9" data-name="Path 9" d="M32,33.423c-6.737,0-13-1.329-17-3.507V47.208C15,49.333,16.276,51,18.463,51h2.855A2.1,2.1,0,0,0,21,52.075v7.706a4.017,4.017,0,0,0,8,0V52.075A1.98,1.98,0,0,0,28.519,51h6.964A1.979,1.979,0,0,0,35,52.075v7.706a4.017,4.017,0,0,0,8,0V52.075A2.1,2.1,0,0,0,42.683,51h2.859C47.729,51,49,49.333,49,47.208V29.916C45,32.1,38.737,33.423,32,33.423Z" fill="#049e42"/>
  </g>
</svg>
