<?xml version="1.0" standalone="no"?>
<!DOCTYPE svg PUBLIC "-//W3C//DTD SVG 20010904//EN"
 "http://www.w3.org/TR/2001/REC-SVG-20010904/DTD/svg10.dtd">
<svg version="1.0" xmlns="http://www.w3.org/2000/svg"
 width="171.000000pt" height="171.000000pt" viewBox="0 0 171.000000 171.000000"
 preserveAspectRatio="xMidYMid meet">
<metadata>
Created by potrace 1.11, written by Peter Selinger 2001-2013
</metadata>
<g transform="translate(0.000000,171.000000) scale(0.100000,-0.100000)"
fill="#000000" stroke="none">
<path d="M875 1588 c-11 -5 -35 -31 -53 -58 -58 -85 -142 -141 -142 -96 0 28
-62 97 -107 120 -91 45 -187 40 -267 -15 -43 -29 -93 -104 -102 -152 -3 -21
-17 -50 -29 -65 -54 -65 -64 -114 -30 -148 13 -13 33 -24 44 -24 15 0 24 -13
36 -52 50 -153 144 -262 255 -297 46 -14 163 -19 219 -9 24 4 67 19 96 32 l52
23 13 -31 c10 -24 14 -27 17 -13 5 20 23 23 23 5 0 -7 25 -71 54 -141 42 -100
51 -130 40 -134 -22 -8 -17 -42 20 -144 18 -52 46 -130 61 -174 15 -44 32 -86
39 -93 11 -11 47 -9 207 13 107 14 207 28 222 31 40 8 160 150 154 182 -2 12
0 25 4 28 14 8 11 178 -3 192 -9 9 -9 15 0 24 31 31 14 54 -105 141 -65 46
-128 94 -141 105 -37 32 -81 47 -102 34 -12 -7 -76 -9 -196 -6 -99 2 -182 4
-186 4 -4 0 -15 11 -24 25 -16 24 -15 26 32 78 27 29 58 70 69 91 20 37 20 38
1 52 -11 8 -28 14 -37 14 -16 0 -16 5 6 48 37 74 42 147 16 230 -22 68 -78
154 -116 177 -14 9 -26 10 -40 3z m70 -756 c5 -13 3 -13 -13 1 -10 9 -23 17
-29 17 -14 0 -34 25 -27 33 8 8 61 -32 69 -51z m249 7 c100 -3 109 -8 65 -41
-23 -18 -26 -18 -94 8 -39 15 -74 31 -80 37 -7 7 -6 8 1 4 6 -3 54 -7 108 -8z
m-178 -57 c-11 -10 -43 23 -38 40 4 17 7 17 23 -8 10 -16 17 -30 15 -32z m75
24 c136 -52 125 -44 103 -64 -51 -45 -51 -45 -88 -23 -19 12 -46 42 -60 66
-13 25 -23 45 -21 45 1 0 31 -11 66 -24z m-12 -130 c13 -24 18 -42 11 -44 -5
-2 -10 -8 -10 -13 0 -6 -12 -20 -27 -33 l-27 -24 -48 116 c-26 64 -48 117 -48
119 0 2 29 -16 63 -39 41 -27 72 -56 86 -82z"/>
</g>
</svg>
